<?xml version="1.0" standalone="no"?>
<!DOCTYPE svg PUBLIC "-//W3C//DTD SVG 20010904//EN"
 "http://www.w3.org/TR/2001/REC-SVG-20010904/DTD/svg10.dtd">
<svg version="1.0" xmlns="http://www.w3.org/2000/svg"
 width="303.000000pt" height="303.000000pt" viewBox="0 0 303.000000 303.000000"
 preserveAspectRatio="xMidYMid meet">
<metadata>
Created by potrace 1.14, written by Peter Selinger 2001-2017
</metadata>
<g transform="translate(0.000000,303.000000) scale(0.100000,-0.100000)"
fill="#000000" stroke="none">
<path d="M1489 2929 c10 -28 8 -168 -3 -206 -3 -13 -8 -33 -11 -45 -10 -45
-103 -223 -138 -262 -46 -53 -175 -218 -218 -279 -105 -150 -118 -302 -37
-436 12 -20 30 -43 40 -52 41 -37 0 -46 -62 -14 -33 17 -105 97 -131 145 l-18
35 -2 -40 c-5 -147 32 -265 123 -390 82 -113 115 -192 119 -281 4 -107 40
-181 99 -201 14 -5 111 -8 217 -7 169 2 195 4 217 21 36 26 65 90 71 159 10
106 14 122 34 167 11 24 53 93 93 153 104 155 129 247 98 360 -14 51 -45 104
-142 246 -31 46 -65 101 -74 123 -18 43 -24 161 -11 208 10 37 -2 34 -56 -13
-99 -87 -117 -206 -52 -343 9 -20 15 -44 11 -52 -5 -14 -9 -14 -33 2 -45 27
-94 84 -116 133 -24 51 -32 169 -16 222 6 18 12 40 14 48 1 8 13 40 24 70 91
237 88 405 -9 511 -34 37 -38 40 -31 18z m381 -1069 c20 -30 42 -70 50 -88 13
-33 17 -132 8 -182 -7 -33 -29 -80 -39 -80 -4 0 -7 37 -7 83 1 84 -6 122 -45
237 -23 72 -25 81 -19 94 5 9 4 10 52 -64z"/>
<path d="M1980 1309 c-29 -40 -64 -94 -77 -119 l-24 -47 20 -34 c109 -185 75
-448 -79 -600 -49 -48 -131 -104 -177 -121 -60 -20 -284 -16 -358 6 -241 74
-381 350 -309 606 9 30 24 70 35 89 16 28 18 39 9 64 -11 34 -65 121 -92 151
-10 11 -20 28 -24 38 -13 43 -42 3 -80 -108 -32 -97 -40 -245 -19 -349 23
-111 96 -245 180 -330 l71 -72 -83 -99 c-45 -54 -82 -104 -83 -109 0 -6 12
-18 28 -27 142 -82 242 -121 369 -147 134 -28 241 -26 412 5 121 21 377 149
346 171 -6 5 -42 46 -80 93 -38 47 -75 91 -83 99 -11 12 -4 24 51 80 159 161
225 360 194 576 -9 63 -49 181 -78 228 l-17 28 -52 -72z"/>
<path d="M1248 836 c-23 -17 -22 -21 2 -43 17 -17 38 -18 207 -17 226 2 206 0
220 24 10 15 10 22 -2 34 -21 20 -401 23 -427 2z"/>
<path d="M1255 727 c-31 -11 -32 -31 -3 -51 18 -13 57 -16 213 -16 197 0 215
4 215 41 0 9 -8 20 -17 24 -25 10 -378 12 -408 2z"/>
<path d="M1247 608 c-20 -15 -15 -42 11 -54 26 -11 374 -12 399 -1 29 13 36
33 18 51 -21 20 -401 23 -428 4z"/>
<path d="M1351 498 c-24 -8 -26 -19 -9 -36 18 -18 209 -16 234 2 34 26 4 38
-104 40 -55 1 -110 -1 -121 -6z"/>
</g>
</svg>
